<?xml version="1.0" encoding="utf-8"?>
<!-- Generator: Adobe Illustrator 26.2.1, SVG Export Plug-In . SVG Version: 6.00 Build 0)  -->
<svg version="1.1" id="Capa_1" xmlns="http://www.w3.org/2000/svg" xmlns:xlink="http://www.w3.org/1999/xlink" x="0px" y="0px"
	 viewBox="0 0 32 32" style="enable-background:new 0 0 32 32;" xml:space="preserve">
<style type="text/css">
	.st0{clip-path:url(#SVGID_00000090256011308011743140000013790711551114469298_);fill:#EA0E2C;}
	.st1{clip-path:url(#SVGID_00000090256011308011743140000013790711551114469298_);fill:#FFFFFF;}
</style>
<g>
	<defs>
		<circle id="SVGID_1_" cx="16" cy="16" r="16"/>
	</defs>
	<clipPath id="SVGID_00000018216583171883342190000002161179623106636468_">
		<use xlink:href="#SVGID_1_"  style="overflow:visible;"/>
	</clipPath>
	
		<circle style="clip-path:url(#SVGID_00000018216583171883342190000002161179623106636468_);fill:#EA0E2C;" cx="16" cy="16" r="16"/>
	<polygon style="clip-path:url(#SVGID_00000018216583171883342190000002161179623106636468_);fill:#FFFFFF;" points="26.9,17.5 
		26.4,18.7 25.6,21 20.7,7.6 20.3,6.7 19.7,6.7 19.4,7.6 15.7,17.5 12.5,17.5 12,18.7 11,21.4 10,18.7 9.6,17.5 8,13.2 7.7,12.4 
		7,12.4 6.7,13.2 5.1,17.5 -1.4,17.5 -4.7,17.5 -32,17.5 -32,18.7 -4.7,18.7 -1.4,18.7 6,18.7 6.4,17.5 7.4,14.9 8.3,17.5 8.7,18.7 
		10.4,23.1 10.6,23.9 11.4,23.9 11.6,23.1 13.3,18.7 16.5,18.7 17,17.5 20,9.3 25,22.7 25.3,23.4 25.9,23.4 26.2,22.7 27.7,18.7 
		78.9,18.7 78.9,17.5 	"/>
</g>
</svg>
