<?xml version="1.0" encoding="utf-8"?>
<!-- Generator: Adobe Illustrator 26.2.1, SVG Export Plug-In . SVG Version: 6.00 Build 0)  -->
<svg version="1.1" id="Capa_1" xmlns="http://www.w3.org/2000/svg" xmlns:xlink="http://www.w3.org/1999/xlink" x="0px" y="0px"
	 viewBox="0 0 32 32" style="enable-background:new 0 0 32 32;" xml:space="preserve">
<style type="text/css">
	.st0{clip-path:url(#SVGID_00000079445711640064564980000011914410459043116991_);}
	.st1{fill:#EA0E2C;}
	.st2{fill:#FFFFFF;}
	.st3{fill:#FFAE01;}
</style>
<g>
	<g>
		<defs>
			<circle id="SVGID_1_" cx="16" cy="16" r="16"/>
		</defs>
		<clipPath id="SVGID_00000054223985139148419720000016640807705919866255_">
			<use xlink:href="#SVGID_1_"  style="overflow:visible;"/>
		</clipPath>
		<g style="clip-path:url(#SVGID_00000054223985139148419720000016640807705919866255_);">
			<circle class="st1" cx="16" cy="16" r="16"/>
		</g>
		<g style="clip-path:url(#SVGID_00000054223985139148419720000016640807705919866255_);">
			<path class="st2" d="M7.5,10.2h1.7V22H7.5V10.2z M8.4,15.8h3.8c0.4,0,0.7-0.1,0.9-0.3c0.3-0.2,0.5-0.4,0.6-0.7
				c0.1-0.3,0.2-0.7,0.2-1.1c0-0.4-0.1-0.8-0.2-1.1c-0.1-0.3-0.4-0.5-0.6-0.7c-0.3-0.2-0.6-0.3-0.9-0.3H8.4v-1.6h3.7
				c0.7,0,1.3,0.2,1.9,0.5c0.5,0.3,1,0.7,1.2,1.3c0.3,0.5,0.4,1.2,0.4,1.9c0,0.7-0.1,1.4-0.4,1.9c-0.3,0.5-0.7,1-1.2,1.3
				c-0.5,0.3-1.2,0.4-1.9,0.4H8.4V15.8z"/>
			<path class="st3" d="M18.5,21.6c-0.6-0.4-1.1-0.9-1.5-1.5c-0.3-0.7-0.5-1.4-0.5-2.3v-3.2c0-0.9,0.2-1.7,0.5-2.3
				c0.3-0.7,0.8-1.2,1.5-1.5c0.6-0.4,1.4-0.5,2.2-0.5c0.7,0,1.4,0.2,1.9,0.5c0.6,0.3,1.1,0.7,1.4,1.3c0.4,0.6,0.6,1.2,0.8,2h-2
				c-0.1-0.4-0.3-0.7-0.5-1c-0.2-0.3-0.5-0.5-0.8-0.7c-0.3-0.2-0.6-0.2-0.9-0.2c-0.4,0-0.8,0.1-1.2,0.3c-0.3,0.2-0.6,0.5-0.8,0.9
				c-0.2,0.4-0.3,0.8-0.3,1.3v3.2c0,0.5,0.1,1,0.3,1.3c0.2,0.4,0.4,0.7,0.8,0.9c0.3,0.2,0.7,0.3,1.2,0.3c0.3,0,0.7-0.1,0.9-0.2
				c0.3-0.1,0.5-0.4,0.8-0.6c0.2-0.3,0.4-0.6,0.5-1h2c-0.1,0.8-0.4,1.5-0.8,2c-0.4,0.6-0.9,1-1.4,1.3c-0.6,0.3-1.2,0.5-1.9,0.5
				C19.9,22.1,19.1,21.9,18.5,21.6z"/>
		</g>
	</g>
</g>
</svg>
