<?xml version="1.0" encoding="utf-8"?>
<!-- Generator: Adobe Illustrator 25.4.1, SVG Export Plug-In . SVG Version: 6.00 Build 0)  -->
<svg version="1.1" id="Capa_1" xmlns="http://www.w3.org/2000/svg" xmlns:xlink="http://www.w3.org/1999/xlink" x="0px" y="0px"
	 viewBox="0 0 600 130" style="enable-background:new 0 0 600 130;" xml:space="preserve">
<style type="text/css">
	.st0{fill:#FFFFFF;}
	.st1{fill:#FFAE01;}
</style>
<g>
	<g>
		<path class="st0" d="M39.78,12.49c-1.52-2.74-3.66-4.98-6.4-6.5c-2.74-1.52-5.89-2.34-9.55-2.34H8.79v-0.1H0.25v60.86h8.54V40.84
			h15.04c3.56,0,6.81-0.81,9.55-2.34c2.74-1.52,4.88-3.66,6.4-6.5c1.52-2.74,2.24-6,2.24-9.75C42.01,18.59,41.3,15.34,39.78,12.49z
			 M32.26,27.73c-0.81,1.52-1.83,2.74-3.25,3.66c-1.42,0.91-3.05,1.32-4.88,1.32H8.79V11.78h15.34c1.83,0,3.45,0.41,4.88,1.32
			c1.42,0.81,2.44,2.03,3.25,3.66c0.71,1.52,1.12,3.35,1.12,5.49C33.37,24.28,33.07,26.11,32.26,27.73z"/>
		<path class="st0" d="M62.54,3.55L40.08,64.42h9.25L53.9,51.1h24.59l4.57,13.31h9.25L69.85,3.55H62.54z M56.7,42.98l9.5-27.64
			l9.5,27.64H56.7z"/>
		<path class="st0" d="M133.87,64.42h10.16l-14.07-26.77c1.09-0.33,2.13-0.75,3.1-1.28c2.64-1.52,4.67-3.56,6.2-6.2
			c1.52-2.64,2.24-5.79,2.24-9.25c0-3.45-0.81-6.6-2.24-9.25c-1.42-2.64-3.56-4.78-6.2-6.2c-2.64-1.42-5.69-2.13-9.25-2.13h-20.42
			v0.2h-3.76v60.86h8.54V38.51h12.66L133.87,64.42z M108.16,11.48h15.95c1.73,0,3.15,0.41,4.37,1.22c1.22,0.81,2.13,1.93,2.85,3.35
			c0.71,1.42,1.02,3.15,1.02,4.98c0,1.93-0.3,3.56-1.02,4.98c-0.71,1.42-1.73,2.54-2.95,3.35c-1.22,0.81-2.64,1.22-4.27,1.22h-15.95
			V11.48z"/>
	</g>
	<g>
		<polygon class="st0" points="245.54,43.79 227.65,3.55 219.63,3.55 219.63,64.42 227.96,64.42 227.96,23.26 242.59,55.88 
			248.59,55.88 263.12,22.37 263.12,64.42 271.45,64.42 271.45,3.55 263.42,3.55 		"/>
		<polygon class="st0" points="285.47,3.55 281.3,3.55 281.3,64.42 285.47,64.42 285.47,64.52 320.42,64.52 320.42,56.39 
			289.84,56.39 289.84,38.3 315.85,38.3 315.85,30.17 289.84,30.17 289.84,11.68 320.42,11.68 320.42,3.55 289.84,3.55 		"/>
		<path class="st0" d="M362.19,6.29c-3.45-1.73-7.62-2.54-12.5-2.54h-10.77v-0.2h-8.54v60.86h5.79v0.1h13.51
			c4.88,0,9.04-0.81,12.5-2.54c3.45-1.63,6.1-4.17,7.93-7.42c1.83-3.25,2.74-7.21,2.74-11.79V25.5c0-4.57-0.91-8.54-2.74-11.79
			C368.28,10.46,365.64,8.02,362.19,6.29z M364.12,43.08c0,4.27-1.22,7.52-3.66,9.86c-2.54,2.34-5.99,3.45-10.47,3.45h-11.08V11.88
			h11.08c4.47,0,8.03,1.12,10.47,3.45c2.44,2.34,3.66,5.59,3.66,9.86V43.08z"/>
		<rect x="382.71" y="3.55" class="st0" width="8.54" height="60.86"/>
	</g>
	<path class="st1" d="M411.47,62.28c-3.25-1.83-5.79-4.47-7.52-7.82c-1.73-3.35-2.64-7.42-2.64-12.09V25.7
		c0-4.67,0.91-8.64,2.64-12.09c1.73-3.35,4.27-5.99,7.52-7.82c3.25-1.83,7.11-2.74,11.48-2.74c3.66,0,6.91,0.81,9.96,2.34
		c2.95,1.52,5.39,3.86,7.42,6.71c1.93,2.95,3.35,6.4,4.06,10.47h-10.26c-0.51-1.93-1.32-3.66-2.34-5.08
		c-1.12-1.42-2.34-2.54-3.86-3.35c-1.52-0.81-3.15-1.22-4.88-1.22c-2.34,0-4.27,0.51-5.99,1.52c-1.73,1.02-2.95,2.54-3.86,4.47
		s-1.42,4.17-1.42,6.81v16.66c0,2.64,0.51,4.88,1.42,6.81c0.91,1.93,2.24,3.35,3.86,4.47c1.73,1.02,3.66,1.52,5.99,1.52
		c1.73,0,3.35-0.41,4.88-1.12c1.52-0.71,2.74-1.83,3.86-3.35c1.12-1.42,1.83-3.15,2.34-5.18h10.16c-0.71,3.96-2.13,7.52-4.06,10.47
		c-1.93,2.95-4.47,5.18-7.42,6.71c-2.95,1.52-6.3,2.34-9.86,2.34C418.58,65.03,414.72,64.11,411.47,62.28z"/>
	<g>
		<path class="st0" d="M472.64,3.65l-22.86,60.76h10.77l4.03-11.58h23.45l4.03,11.58h10.77L479.95,3.65H472.64z M467.89,43.28
			l8.4-24.18l8.4,24.18H467.89z"/>
		<polygon class="st0" points="519.99,3.65 510.03,3.65 510.03,64.42 514.8,64.42 519.99,64.42 549.96,64.42 549.96,54.86 
			519.99,54.86 		"/>
		<polygon class="st0" points="569.88,54.86 569.88,3.65 559.92,3.65 559.92,64.42 564.59,64.42 569.88,64.42 599.75,64.42 
			599.75,54.86 		"/>
	</g>
	<g>
		<path class="st0" d="M242.08,120c-0.71-0.3-1.63-0.61-2.74-0.81h-0.1h-0.1h-0.1h-0.1c-0.91-0.2-1.73-0.41-2.34-0.61
			c-0.51-0.1-1.02-0.41-1.42-0.81c-0.41-0.3-0.61-0.91-0.61-1.52c0-1.12,0.41-1.93,1.22-2.54c0.81-0.61,1.93-0.91,3.35-0.91
			c0.71,0,1.42,0.1,2.13,0.41c0.71,0.3,1.52,0.71,2.24,1.22l1.02-1.32c-0.61-0.41-1.12-0.71-1.73-1.02
			c-0.61-0.3-1.22-0.51-1.83-0.61c-0.61-0.1-1.22-0.2-1.83-0.2c-1.32,0-2.44,0.2-3.35,0.61c-0.91,0.41-1.63,0.91-2.13,1.73
			c-0.51,0.71-0.71,1.63-0.71,2.74s0.3,1.93,0.81,2.54c0.51,0.61,1.12,1.12,1.83,1.32c0.71,0.2,1.73,0.51,2.95,0.71l0.3,0.1h0.1
			c0.1,0,0.1,0,0.1,0c0.81,0.1,1.52,0.3,2.13,0.51c0.61,0.2,1.02,0.51,1.42,0.91c0.3,0.41,0.51,0.91,0.51,1.63
			c0,1.12-0.41,1.93-1.22,2.54c-0.81,0.61-1.93,0.91-3.45,0.91c-1.02,0-1.93-0.2-2.85-0.51c-0.91-0.3-1.73-0.81-2.44-1.42
			l-1.02,1.32c0.61,0.51,1.22,0.91,1.83,1.22c0.71,0.3,1.42,0.51,2.13,0.71c0.81,0.2,1.63,0.2,2.13,0c1.32,0,2.54-0.2,3.45-0.61
			c1.02-0.41,1.73-1.02,2.24-1.73c0.51-0.81,0.71-1.73,0.71-2.74c0-1.02-0.2-1.83-0.71-2.44C243.4,120.71,242.79,120.3,242.08,120z"
			/>
		<polygon class="st0" points="248.89,111.46 247.67,111.46 247.67,128.94 249.4,128.94 249.4,128.94 258.95,128.94 258.95,127.31 
			249.4,127.31 249.4,121.01 257.63,121.01 257.63,119.39 249.4,119.39 249.4,113.09 258.95,113.09 258.95,111.46 249.4,111.46 		
			"/>
		<path class="st0" d="M271.35,120.71c0.81-0.41,1.42-0.91,1.83-1.73c0.41-0.71,0.61-1.63,0.61-2.64c0-1.02-0.2-1.83-0.61-2.64
			c-0.41-0.71-0.91-1.32-1.73-1.73c-0.71-0.41-1.63-0.61-2.64-0.61h-5.89v0.1h-1.02v17.48h1.73v-7.62h5.03l3.91,7.62h2.03
			l-4.17-7.87C270.74,120.97,271.04,120.86,271.35,120.71z M263.62,112.99h5.28c0.71,0,1.22,0.1,1.73,0.41
			c0.51,0.3,0.81,0.71,1.12,1.22s0.41,1.12,0.41,1.83c0,0.71-0.1,1.32-0.41,1.83c-0.2,0.51-0.61,0.91-1.12,1.22
			c-0.51,0.3-1.12,0.41-1.73,0.41h-5.28V112.99z"/>
		<polygon class="st0" points="282.22,126.4 277.24,111.46 275.41,111.46 281.41,128.94 283.03,128.94 289.03,111.46 287.2,111.46 
					"/>
		<rect x="291.67" y="111.46" class="st0" width="1.73" height="17.48"/>
		<path class="st0" d="M299.49,115.22c0.41-0.71,0.91-1.32,1.52-1.73c0.61-0.41,1.42-0.61,2.24-0.61c0.61,0,1.22,0.1,1.83,0.41
			c0.61,0.3,1.12,0.71,1.52,1.22c0.41,0.51,0.71,1.12,0.91,1.73h1.73c-0.2-1.02-0.51-1.93-1.12-2.64c-0.61-0.71-1.32-1.32-2.13-1.73
			c-0.81-0.41-1.73-0.61-2.74-0.61c-1.22,0-2.24,0.3-3.15,0.81c-0.91,0.51-1.63,1.22-2.13,2.24c-0.51,1.02-0.71,2.13-0.71,3.45v4.78
			c0,1.32,0.2,2.44,0.71,3.45c0.51,0.91,1.22,1.73,2.13,2.24c0.91,0.61,1.93,0.81,3.15,0.81c1.02,0,1.93-0.2,2.74-0.61
			c0.81-0.41,1.52-1.02,2.13-1.73c0.51-0.81,0.91-1.63,1.12-2.64h-1.73c-0.2,0.71-0.51,1.32-0.91,1.83
			c-0.41,0.51-0.91,0.81-1.52,1.12c-0.61,0.3-1.22,0.41-1.83,0.41c-0.81,0-1.63-0.2-2.24-0.61c-0.61-0.41-1.12-1.02-1.52-1.73
			c-0.3-0.71-0.51-1.52-0.51-2.54v-4.78C298.98,116.85,299.09,115.93,299.49,115.22z"/>
		<rect x="312.4" y="111.46" class="st0" width="1.73" height="17.48"/>
		<path class="st0" d="M327.43,111.97c-0.91-0.51-2.03-0.71-3.35-0.71c-1.32,0-2.44,0.2-3.35,0.71c-0.91,0.51-1.63,1.32-2.13,2.24
			c-0.51,0.91-0.71,2.13-0.71,3.45v4.98c0,1.32,0.2,2.54,0.71,3.45c0.51,1.02,1.22,1.73,2.13,2.24c0.91,0.51,2.03,0.71,3.35,0.71
			c1.32,0,2.44-0.2,3.35-0.71c0.91-0.51,1.63-1.32,2.13-2.24c0.51-0.91,0.71-2.13,0.71-3.45v-4.98c0-1.32-0.2-2.54-0.71-3.45
			C329.06,113.19,328.35,112.48,327.43,111.97z M328.45,122.74c0,1.02-0.2,1.83-0.51,2.54c-0.41,0.71-0.91,1.22-1.52,1.63
			c-0.61,0.41-1.42,0.61-2.34,0.51c-0.91,0-1.63-0.1-2.34-0.51c-0.71-0.41-1.22-0.91-1.52-1.63c-0.3-0.71-0.51-1.52-0.51-2.54v-5.08
			c0-1.02,0.2-1.83,0.51-2.54c0.41-0.71,0.91-1.32,1.52-1.63c0.61-0.3,1.42-0.51,2.34-0.51c0.91,0,1.73,0.1,2.34,0.51
			c0.71,0.41,1.22,0.91,1.52,1.63c0.3,0.71,0.51,1.52,0.51,2.54V122.74z"/>
		<path class="st0" d="M341.97,120c-0.71-0.3-1.63-0.61-2.74-0.81h-0.1h-0.1h-0.1h-0.1c-0.91-0.2-1.73-0.41-2.34-0.61
			c-0.51-0.1-1.02-0.41-1.42-0.81c-0.41-0.3-0.61-0.91-0.61-1.52c0-1.12,0.41-1.93,1.22-2.54c0.81-0.61,1.93-0.91,3.35-0.91
			c0.71,0,1.42,0.1,2.13,0.41c0.71,0.3,1.52,0.71,2.24,1.22l1.02-1.32c-0.61-0.41-1.12-0.71-1.73-1.02
			c-0.61-0.3-1.22-0.51-1.83-0.61c-0.61-0.1-1.22-0.2-1.83-0.2c-1.32,0-2.44,0.2-3.35,0.61c-0.91,0.41-1.63,0.91-2.13,1.73
			c-0.51,0.71-0.71,1.63-0.71,2.74s0.3,1.93,0.81,2.54c0.51,0.61,1.12,1.12,1.83,1.32c0.71,0.2,1.73,0.51,2.95,0.71l0.3,0.1h0.1
			c0.1,0,0.1,0,0.1,0c0.81,0.1,1.52,0.3,2.13,0.51c0.61,0.2,1.02,0.51,1.42,0.91c0.3,0.41,0.51,0.91,0.51,1.63
			c0,1.12-0.41,1.93-1.22,2.54c-0.81,0.61-1.93,0.91-3.45,0.91c-1.02,0-1.93-0.2-2.85-0.51c-0.91-0.3-1.73-0.81-2.44-1.42
			l-1.02,1.32c0.61,0.51,1.22,0.91,1.83,1.22c0.71,0.3,1.42,0.51,2.13,0.71c0.81,0.2,1.63,0.2,2.13,0c1.32,0,2.54-0.2,3.45-0.61
			c1.02-0.41,1.73-0.91,2.24-1.73c0.51-0.81,0.71-1.73,0.71-2.74c0-1.02-0.2-1.83-0.71-2.44C343.29,120.71,342.68,120.3,341.97,120z
			"/>
		<polygon class="st0" points="361.27,124.06 355.68,111.46 353.85,111.46 353.85,128.94 355.58,128.94 355.58,115.46 360.66,126.6 
			361.88,126.6 366.96,115.27 366.96,128.94 368.69,128.94 368.69,111.46 366.86,111.46 		"/>
		<polygon class="st0" points="381.9,107.7 380.68,106.38 377.22,109.33 378.34,110.45 		"/>
		<polygon class="st0" points="373.67,111.46 372.55,111.46 372.55,128.94 374.28,128.94 374.28,128.94 383.73,128.94 
			383.73,127.31 374.28,127.31 374.28,121.01 382.41,121.01 382.41,119.39 374.28,119.39 374.28,113.09 383.73,113.09 
			383.73,111.46 374.28,111.46 		"/>
		<path class="st0" d="M395.92,112.17c-0.91-0.51-2.13-0.71-3.66-0.71h-3.86h-1.73v17.48h1.73v-0.1h3.86c1.42,0,2.64-0.2,3.66-0.71
			c1.02-0.41,1.73-1.12,2.24-2.03c0.51-0.91,0.71-2.03,0.71-3.45v-4.98c0-1.32-0.2-2.54-0.71-3.45
			C397.65,113.29,396.94,112.68,395.92,112.17z M397.24,122.74c0,1.52-0.41,2.74-1.22,3.45c-0.81,0.71-2.03,1.12-3.66,1.12h-3.96
			v-14.23h3.96c1.63,0,2.85,0.41,3.66,1.12c0.81,0.81,1.22,1.93,1.22,3.45V122.74z"/>
		<rect x="402.42" y="111.46" class="st0" width="1.73" height="17.48"/>
		<path class="st0" d="M410.25,115.22c0.41-0.71,0.91-1.32,1.52-1.73c0.61-0.41,1.42-0.61,2.24-0.61c0.61,0,1.22,0.1,1.83,0.41
			c0.61,0.3,1.12,0.71,1.52,1.22c0.41,0.51,0.71,1.12,0.91,1.73H420c-0.2-1.02-0.51-1.93-1.12-2.64c-0.61-0.71-1.32-1.32-2.13-1.73
			c-0.81-0.41-1.73-0.61-2.74-0.61c-1.22,0-2.24,0.3-3.15,0.81c-0.91,0.51-1.63,1.22-2.13,2.24c-0.51,1.02-0.71,2.13-0.71,3.45v4.78
			c0,1.32,0.2,2.44,0.71,3.45c0.51,0.91,1.22,1.73,2.13,2.24c0.91,0.61,2.03,0.81,3.15,0.81c1.02,0,1.93-0.2,2.74-0.61
			c0.81-0.41,1.52-1.02,2.13-1.73c0.51-0.81,0.91-1.63,1.12-2.64h-1.73c-0.2,0.71-0.51,1.32-0.91,1.83
			c-0.41,0.51-0.91,0.81-1.52,1.12c-0.61,0.3-1.22,0.41-1.83,0.41c-0.81,0-1.63-0.2-2.24-0.61c-0.61-0.41-1.12-1.02-1.52-1.73
			c-0.3-0.71-0.51-1.52-0.51-2.54v-4.78C409.74,116.85,409.84,115.93,410.25,115.22z"/>
		<path class="st0" d="M431.69,111.97c-0.91-0.51-2.03-0.71-3.35-0.71c-1.32,0-2.44,0.2-3.35,0.71c-0.91,0.51-1.63,1.32-2.13,2.24
			c-0.51,0.91-0.71,2.13-0.71,3.45v4.98c0,1.32,0.2,2.54,0.71,3.45c0.51,1.02,1.22,1.73,2.13,2.24c0.91,0.51,2.03,0.71,3.35,0.71
			c1.32,0,2.44-0.2,3.35-0.71c0.91-0.51,1.63-1.32,2.13-2.24c0.51-0.91,0.71-2.13,0.71-3.45v-4.98c0-1.32-0.2-2.54-0.71-3.45
			C433.31,113.19,432.6,112.48,431.69,111.97z M432.7,122.74c0,1.02-0.2,1.83-0.51,2.54c-0.41,0.71-0.91,1.22-1.52,1.63
			c-0.61,0.41-1.42,0.51-2.34,0.51c-0.91,0-1.63-0.1-2.34-0.51c-0.71-0.41-1.22-0.91-1.52-1.63c-0.3-0.71-0.51-1.52-0.51-2.54v-5.08
			c0-1.02,0.2-1.83,0.51-2.54c0.41-0.71,0.91-1.32,1.52-1.63c0.61-0.3,1.42-0.51,2.34-0.51c0.91,0,1.73,0.1,2.34,0.51
			c0.71,0.41,1.22,0.91,1.52,1.63c0.3,0.71,0.51,1.52,0.51,2.54V122.74z"/>
		<path class="st0" d="M446.32,120c-0.71-0.3-1.63-0.61-2.74-0.81h-0.1h-0.1h-0.1h-0.1c-0.91-0.2-1.73-0.41-2.34-0.61
			c-0.51-0.1-1.02-0.41-1.42-0.81c-0.41-0.3-0.61-0.91-0.61-1.52c0-1.12,0.41-1.93,1.22-2.54c0.81-0.61,1.93-0.91,3.35-0.91
			c0.71,0,1.42,0.1,2.13,0.41c0.71,0.3,1.52,0.71,2.24,1.22l1.02-1.32c-0.61-0.41-1.12-0.71-1.73-1.02s-1.22-0.51-1.83-0.61
			c-0.61-0.1-1.22-0.2-1.83-0.2c-1.32,0-2.44,0.2-3.35,0.61c-0.91,0.41-1.63,0.91-2.13,1.73c-0.51,0.71-0.71,1.63-0.71,2.74
			s0.3,1.93,0.81,2.54c0.51,0.61,1.12,1.12,1.83,1.32c0.71,0.2,1.73,0.51,2.95,0.71l0.3,0.1h0.1c0.1,0,0.1,0,0.1,0
			c0.81,0.1,1.52,0.3,2.13,0.51c0.61,0.2,1.02,0.51,1.42,0.91c0.3,0.41,0.51,0.91,0.51,1.63c0,1.12-0.41,1.93-1.22,2.54
			c-0.81,0.61-1.93,0.91-3.45,0.91c-1.02,0-1.93-0.2-2.85-0.51c-0.91-0.3-1.73-0.81-2.44-1.42l-1.02,1.32
			c0.61,0.51,1.22,0.91,1.83,1.22c0.71,0.3,1.42,0.51,2.13,0.71c0.71,0.2,1.52,0.2,2.13,0c1.32,0,2.54-0.2,3.45-0.61
			c1.02-0.41,1.73-0.91,2.24-1.73c0.51-0.81,0.71-1.73,0.71-2.74c0-1.02-0.2-1.83-0.71-2.44C447.64,120.71,447.03,120.3,446.32,120z
			"/>
		<rect x="458.51" y="111.46" class="st0" width="1.73" height="17.48"/>
		<polygon class="st0" points="475.58,126.11 466.13,111.46 464.41,111.46 464.41,128.84 466.13,128.84 466.13,114.38 
			475.58,128.84 477.31,128.84 477.31,111.46 475.58,111.46 		"/>
		<polygon class="st0" points="479.75,113.09 485.03,113.09 485.03,128.94 486.76,128.94 486.76,113.09 492.04,113.09 
			492.04,111.46 479.75,111.46 		"/>
		<polygon class="st0" points="495.09,111.46 493.87,111.46 493.87,128.94 495.6,128.94 495.6,128.94 505.15,128.94 505.15,127.31 
			495.6,127.31 495.6,121.01 503.83,121.01 503.83,119.39 495.6,119.39 495.6,113.09 505.15,113.09 505.15,111.46 495.6,111.46 		
			"/>
		<path class="st0" d="M519.99,119.79h-5.99v1.63h4.27v1.02c0,1.12-0.2,2.03-0.51,2.74c-0.3,0.71-0.81,1.32-1.42,1.63
			c-0.71,0.3-1.42,0.51-2.44,0.51c-0.91,0-1.83-0.2-2.44-0.51c-0.71-0.3-1.22-0.81-1.52-1.52s-0.51-1.52-0.51-2.54v-5.18
			c0-1.12,0.2-2.03,0.51-2.74c0.3-0.71,0.81-1.22,1.42-1.63c0.61-0.3,1.42-0.51,2.44-0.51c0.71,0,1.42,0.1,1.93,0.41
			c0.61,0.3,1.02,0.71,1.42,1.22c0.41,0.61,0.71,1.22,0.91,2.03h1.83c-0.2-1.12-0.61-2.03-1.12-2.85c-0.51-0.81-1.22-1.32-2.03-1.73
			c-0.81-0.41-1.83-0.61-2.95-0.61c-1.32,0-2.44,0.2-3.35,0.71c-0.91,0.41-1.63,1.22-2.03,2.13c-0.51,1.02-0.71,2.24-0.71,3.66v5.18
			c0,1.42,0.3,2.54,0.71,3.45c0.41,0.91,1.12,1.63,2.03,2.03c0.91,0.51,2.03,0.71,3.45,0.71c1.32,0,2.44-0.2,3.35-0.71
			c0.91-0.41,1.63-1.12,2.03-2.13c0.51-1.02,0.71-2.24,0.71-3.66V120h0V119.79z"/>
		<path class="st0" d="M532.79,120.71c0.81-0.41,1.42-0.91,1.83-1.73c0.41-0.71,0.61-1.63,0.61-2.64c0-1.02-0.2-1.83-0.61-2.64
			c-0.41-0.71-0.91-1.32-1.73-1.73c-0.71-0.41-1.63-0.61-2.64-0.61h-5.89v0.1h-1.12v17.48h1.73v-7.62h5.14l3.91,7.62h2.03
			l-4.17-7.87C532.18,120.97,532.49,120.86,532.79,120.71z M524.96,112.99h5.39c0.71,0,1.22,0.1,1.73,0.41s0.81,0.71,1.12,1.22
			s0.41,1.12,0.41,1.83c0,0.71-0.1,1.32-0.41,1.83c-0.2,0.51-0.61,0.91-1.12,1.22c-0.51,0.3-1.12,0.41-1.73,0.41h-5.39V112.99z"/>
		<path class="st0" d="M542.95,111.46l-6.5,17.48h1.93l1.52-4.27h8.13l1.52,4.27h1.93l-6.4-17.48H542.95z M540.48,123.04l3.48-9.75
			l3.48,9.75H540.48z"/>
		<polygon class="st0" points="555.24,111.46 553.52,111.46 553.52,128.94 555.24,128.94 555.24,128.94 564.69,128.94 
			564.69,127.31 555.24,127.31 		"/>
		<polygon class="st0" points="568.35,111.46 567.13,111.46 567.13,128.94 568.86,128.94 568.86,128.94 578.41,128.94 
			578.41,127.31 568.86,127.31 568.86,121.01 577.09,121.01 577.09,119.39 568.86,119.39 568.86,113.09 578.41,113.09 
			578.41,111.46 568.86,111.46 		"/>
		<path class="st0" d="M592.03,121.32c-0.51-0.61-1.12-1.02-1.83-1.32c-0.71-0.3-1.63-0.61-2.74-0.81h-0.1h-0.1h-0.1h-0.1
			c-0.91-0.2-1.73-0.41-2.34-0.61c-0.51-0.1-1.02-0.41-1.42-0.81c-0.41-0.3-0.61-0.91-0.61-1.52c0-1.12,0.41-1.93,1.22-2.54
			c0.81-0.61,1.93-0.91,3.35-0.91c0.71,0,1.42,0.1,2.13,0.41c0.71,0.3,1.52,0.71,2.24,1.22l1.02-1.32
			c-0.61-0.41-1.12-0.71-1.73-1.02s-1.22-0.51-1.83-0.61c-0.61-0.1-1.22-0.2-1.83-0.2c-1.32,0-2.44,0.2-3.35,0.61
			s-1.63,0.91-2.13,1.73c-0.51,0.71-0.71,1.63-0.71,2.74s0.3,1.93,0.81,2.54c0.51,0.61,1.12,1.12,1.83,1.32
			c0.71,0.2,1.73,0.51,2.95,0.71l0.3,0.1h0.1c0.1,0,0.1,0,0.1,0c0.81,0.1,1.52,0.3,2.13,0.51c0.61,0.2,1.02,0.51,1.42,0.91
			c0.3,0.41,0.51,0.91,0.51,1.63c0,1.12-0.41,1.93-1.22,2.54c-0.81,0.61-1.93,0.91-3.45,0.91c-1.02,0-1.93-0.2-2.85-0.51
			c-0.91-0.3-1.73-0.81-2.44-1.42l-1.02,1.32c0.61,0.51,1.22,0.91,1.83,1.22c0.71,0.3,1.42,0.51,2.13,0.71c0.71,0.2,1.52,0.2,2.13,0
			c1.32,0,2.54-0.2,3.45-0.61c1.02-0.41,1.73-0.91,2.24-1.73s0.71-1.73,0.71-2.74C592.74,122.74,592.54,121.93,592.03,121.32z"/>
	</g>
	<g>
		<polygon class="st0" points="598.63,83.82 589.49,83.82 219.63,83.82 216.48,92.36 214.95,96.63 183.55,11.78 181.32,5.58 
			176.75,5.58 174.51,11.78 147.89,83.82 0.25,83.82 0.25,92.36 153.88,92.36 157.03,83.82 179.08,24.08 210.38,109.02 
			212.41,114.51 217.39,114.51 219.52,109.02 225.62,92.36 589.49,92.36 598.63,92.36 599.75,92.36 599.75,83.82 		"/>
	</g>
</g>
</svg>
