<svg id="Capa_1" data-name="Capa 1" xmlns="http://www.w3.org/2000/svg" viewBox="0 0 294.05 294.05"><defs><style>.cls-1{fill:#fff;}.cls-2{fill:#969696;}</style></defs><circle class="cls-1" cx="147.02" cy="147.02" r="147.02"/><path class="cls-2" d="M202.16,156.26c-.4-.19-15.4-7.57-18.06-8.53a10.45,10.45,0,0,0-3.5-.78,6,6,0,0,0-5,3c-1.5,2.22-6,7.52-7.43,9.11-.19.21-.44.46-.59.46s-2.45-1-3.15-1.26c-16.09-7-28.31-23.8-30-26.63a1.58,1.58,0,0,1-.25-.6,5,5,0,0,1,.88-1c.81-.81,1.7-1.88,2.56-2.91.4-.49.81-1,1.21-1.44a16,16,0,0,0,2.43-3.86l.34-.68a7,7,0,0,0-.21-6.58c-.35-.71-6.68-16-7.36-17.6-1.62-3.88-3.76-5.68-6.73-5.68-.27,0,0,0-1.16,0-1.4.06-9.08,1.07-12.47,3.2C110,96.77,104,104,104,116.71c0,11.45,7.26,22.25,10.38,26.36.08.1.22.31.42.61,11.94,17.44,26.83,30.36,41.91,36.39,14.53,5.8,21.41,6.47,25.32,6.47h0a40.94,40.94,0,0,0,4.12-.24l.73-.07c5-.45,16-6.16,18.56-13.13,2-5.49,2.49-11.49,1.18-13.67C205.68,158,204.13,157.21,202.16,156.26Z" transform="translate(-2.98 -2.98)"/><path class="cls-2" d="M154.62,38C98.9,38,53.57,83,53.57,138.34a99.67,99.67,0,0,0,13.85,50.72L50.07,240.25a2.67,2.67,0,0,0,2.53,3.53,2.84,2.84,0,0,0,.81-.12l53.38-17a101.69,101.69,0,0,0,47.83,11.93c55.72,0,101-45,101-100.28S210.34,38,154.62,38Zm0,179.69a80,80,0,0,1-44-13.13,2.67,2.67,0,0,0-1.47-.44,2.84,2.84,0,0,0-.81.12l-26.74,8.51,8.63-25.47a2.69,2.69,0,0,0-.37-2.44,78.31,78.31,0,0,1-15.24-46.54c0-43.79,35.91-79.4,80-79.4s80,35.61,80,79.4S198.75,217.73,154.62,217.73Z" transform="translate(-2.98 -2.98)"/></svg>