<svg id="Capa_1" data-name="Capa 1" xmlns="http://www.w3.org/2000/svg" viewBox="0 0 294.05 294.05"><defs><style>.cls-1{fill:#fff;}.cls-2{fill:#969696;}</style></defs><circle class="cls-1" cx="147.02" cy="147.02" r="147.02"/><path class="cls-2" d="M191.53,39.25H108.47a61.29,61.29,0,0,0-61.22,61.22v83.06a61.29,61.29,0,0,0,61.22,61.22h83.06a61.29,61.29,0,0,0,61.22-61.22V100.47A61.29,61.29,0,0,0,191.53,39.25Zm40.55,144.28a40.54,40.54,0,0,1-40.55,40.55H108.47a40.54,40.54,0,0,1-40.55-40.55V100.47a40.54,40.54,0,0,1,40.55-40.55h83.06a40.54,40.54,0,0,1,40.55,40.55v83.06Z" transform="translate(-2.98 -2.98)"/><path class="cls-2" d="M150,88.85A53.15,53.15,0,1,0,203.15,142,53.21,53.21,0,0,0,150,88.85Zm0,85.63A32.48,32.48,0,1,1,182.48,142,32.48,32.48,0,0,1,150,174.48Z" transform="translate(-2.98 -2.98)"/><circle class="cls-2" cx="200.28" cy="86.27" r="12.74"/></svg>