<?xml version="1.0" encoding="utf-8"?>
<!-- Generator: Adobe Illustrator 25.4.1, SVG Export Plug-In . SVG Version: 6.00 Build 0)  -->
<svg version="1.1" id="Capa_1" xmlns="http://www.w3.org/2000/svg" xmlns:xlink="http://www.w3.org/1999/xlink" x="0px" y="0px"
	 viewBox="0 0 294.05 294.05" style="enable-background:new 0 0 294.05 294.05;" xml:space="preserve">
<style type="text/css">
	.st0{fill:#FFC303;}
	.st1{fill:#1A1A1A;}
</style>
<circle class="st0" cx="147.02" cy="147.02" r="147.02"/>
<path class="st1" d="M188.55,36.27h-83.06C71.7,36.31,44.31,63.7,44.27,97.49v83.06c0.04,33.79,27.43,61.18,61.22,61.22h83.06
	c33.79-0.04,61.18-27.43,61.22-61.22V97.49C249.73,63.7,222.34,36.31,188.55,36.27z M229.1,180.55
	c0.01,22.39-18.14,40.54-40.53,40.55c-0.01,0-0.01,0-0.02,0h-83.06c-22.39,0.01-40.54-18.14-40.55-40.53c0-0.01,0-0.01,0-0.02V97.49
	c-0.01-22.39,18.14-40.54,40.53-40.55c0.01,0,0.01,0,0.02,0h83.06c22.39-0.01,40.54,18.14,40.55,40.53c0,0.01,0,0.01,0,0.02V180.55z
	"/>
<path class="st1" d="M147.02,85.87c-29.35,0-53.15,23.8-53.15,53.15s23.8,53.15,53.15,53.15s53.15-23.8,53.15-53.15l0,0
	C200.14,109.68,176.36,85.9,147.02,85.87z M147.02,171.5c-17.94,0-32.48-14.54-32.48-32.48s14.54-32.48,32.48-32.48
	s32.48,14.54,32.48,32.48l0,0C179.5,156.96,164.96,171.5,147.02,171.5z"/>
<circle class="st1" cx="200.28" cy="86.27" r="12.74"/>
</svg>
