<svg id="Capa_1" data-name="Capa 1" xmlns="http://www.w3.org/2000/svg" viewBox="0 0 294.05 294.05"><defs><style>.cls-1{fill:#fff;}.cls-2{fill:#969696;}</style></defs><circle class="cls-1" cx="147.02" cy="147.02" r="147.02"/><path class="cls-2" d="M101.57,147.44H124v92.43a3.31,3.31,0,0,0,3.31,3.3h38.06a3.31,3.31,0,0,0,3.31-3.3v-92h25.81a3.31,3.31,0,0,0,3.28-2.93l3.92-34a3.3,3.3,0,0,0-3.28-3.68H168.7V85.92c0-6.43,3.46-9.69,10.29-9.69h19.44a3.31,3.31,0,0,0,3.3-3.31V41.69a3.3,3.3,0,0,0-3.3-3.3H171.64c-.19,0-.61,0-1.23,0-4.65,0-20.8.92-33.56,12.66C122.71,64,124.67,79.6,125.14,82.3v25H101.57a3.3,3.3,0,0,0-3.3,3.3v33.59A3.3,3.3,0,0,0,101.57,147.44Z" transform="translate(-2.98 -2.98)"/></svg>